# xmcd CD database file
#
# Track frame offsets:
#	150
#	19894
#	47615
#	68684
#	86806
#	104335
#	126166
#	143809
#	164069
#	190748
#	208885
#	222708
#	245924
#	274160
#	299122
#	315650
#
# Disc length: 4722 seconds
#
# Revision: 0
# Processed by: cddbd v1.5.2PL0 Copyright (c) Steve Scherf et al.
# Submitted via: CDex 1.50
#
DISCID=0c127010
DTITLE=Korean Jazz - Korean Jazz Album 2005
DYEAR=2005
DGENRE=Jazz
TTITLE0=곽윤찬/All The Things You Are
TTITLE1=잭리/Scences From The Past
TTITLE2=트리오로그/It Rains
TTITLE3=웅산/Call Me
TTITLE4=권석영/그리움
TTITLE5=젠틀레인/After The Gentle Rain
TTITLE6=이노경/Moving Soon
TTITLE7=정금화/All Of Me
TTITLE8=김남균/As I Dream
TTITLE9=트리오로만/I Am Thine, O Lord
TTITLE10=프렐류드/Four Brothers
TTITLE11=송영주/Turning Point
TTITLE12=남경윤/Energy And Angular Momentum
TTITLE13=임달균/Giant Steps
TTITLE14=나윤선/Yo Solo Quiero
TTITLE15=박재천&미연/Iberian Sunset
EXTD=YEAR: 2005
EXTT0=
EXTT1=
EXTT2=
EXTT3=
EXTT4=
EXTT5=
EXTT6=
EXTT7=
EXTT8=
EXTT9=
EXTT10=
EXTT11=
EXTT12=
EXTT13=
EXTT14=
EXTT15=
PLAYORDER=
